{
    "asset" : {
        "generator" : "Khronos glTF Blender I/O v3.4.50",
        "version" : "2.0"
    },
    "scene" : 0,
    "scenes" : [
        {
            "name" : "Scene",
            "nodes" : [
                0,
                1,
                2,
                3
            ]
        }
    ],
    "nodes" : [
        {
            "mesh" : 0,
            "name" : "Can Body",
            "scale" : [
                1.9772378206253052,
                2.9406237602233887,
                1.9743380546569824
            ],
            "translation" : [
                0,
                0.6916219592094421,
                0
            ]
        },
        {
            "mesh" : 1,
            "name" : "Open Tab",
            "rotation" : [
                0,
                -1,
                0,
                4.371138828673793e-08
            ],
            "scale" : [
                0.9943851232528687,
                2.569373607635498,
                0.9943851232528687
            ],
            "translation" : [
                1.081746220588684,
                2.993194103240967,
                0
            ]
        },
        {
            "mesh" : 2,
            "name" : "Label Wrap",
            "translation" : [
                0,
                0.03999999910593033,
                0
            ]
        },
        {
            "mesh" : 3,
            "name" : "Can Top",
            "rotation" : [
                0.007712190505117178,
                0.03032173402607441,
                0.0017619733698666096,
                0.9995088577270508
            ],
            "scale" : [
                0.9268133044242859,
                1,
                0.9268133044242859
            ],
            "translation" : [
                0,
                2.9932143688201904,
                0
            ]
        }
    ],
    "animations" : [
        {
            "channels" : [
                {
                    "sampler" : 0,
                    "target" : {
                        "node" : 1,
                        "path" : "translation"
                    }
                },
                {
                    "sampler" : 1,
                    "target" : {
                        "node" : 1,
                        "path" : "rotation"
                    }
                },
                {
                    "sampler" : 2,
                    "target" : {
                        "node" : 1,
                        "path" : "scale"
                    }
                }
            ],
            "name" : "Open TabAction",
            "samplers" : [
                {
                    "input" : 16,
                    "interpolation" : "STEP",
                    "output" : 17
                },
                {
                    "input" : 16,
                    "interpolation" : "STEP",
                    "output" : 18
                },
                {
                    "input" : 16,
                    "interpolation" : "STEP",
                    "output" : 19
                }
            ]
        },
        {
            "channels" : [
                {
                    "sampler" : 0,
                    "target" : {
                        "node" : 3,
                        "path" : "translation"
                    }
                },
                {
                    "sampler" : 1,
                    "target" : {
                        "node" : 3,
                        "path" : "rotation"
                    }
                },
                {
                    "sampler" : 2,
                    "target" : {
                        "node" : 3,
                        "path" : "scale"
                    }
                }
            ],
            "name" : "Can TopAction",
            "samplers" : [
                {
                    "input" : 16,
                    "interpolation" : "STEP",
                    "output" : 20
                },
                {
                    "input" : 16,
                    "interpolation" : "STEP",
                    "output" : 21
                },
                {
                    "input" : 16,
                    "interpolation" : "STEP",
                    "output" : 22
                }
            ]
        }
    ],
    "materials" : [
        {
            "doubleSided" : true,
            "name" : "Metal",
            "pbrMetallicRoughness" : {
                "baseColorFactor" : [
                    0.800000011920929,
                    0.800000011920929,
                    0.800000011920929,
                    1
                ],
                "roughnessFactor" : 0.5
            }
        },
        {
            "doubleSided" : true,
            "name" : "Label",
            "pbrMetallicRoughness" : {
                "baseColorTexture" : {
                    "index" : 0
                },
                "metallicFactor" : 0,
                "roughnessFactor" : 0.5
            }
        }
    ],
    "meshes" : [
        {
            "name" : "Cylinder.001",
            "primitives" : [
                {
                    "attributes" : {
                        "POSITION" : 0,
                        "TEXCOORD_0" : 1,
                        "NORMAL" : 2
                    },
                    "indices" : 3,
                    "material" : 0
                }
            ]
        },
        {
            "name" : "Plane",
            "primitives" : [
                {
                    "attributes" : {
                        "POSITION" : 4,
                        "TEXCOORD_0" : 5,
                        "NORMAL" : 6
                    },
                    "indices" : 7,
                    "material" : 0
                }
            ]
        },
        {
            "name" : "Cylinder",
            "primitives" : [
                {
                    "attributes" : {
                        "POSITION" : 8,
                        "TEXCOORD_0" : 9,
                        "NORMAL" : 10
                    },
                    "indices" : 11,
                    "material" : 1
                }
            ]
        },
        {
            "name" : "Circle",
            "primitives" : [
                {
                    "attributes" : {
                        "POSITION" : 12,
                        "TEXCOORD_0" : 13,
                        "NORMAL" : 14
                    },
                    "indices" : 15,
                    "material" : 0
                }
            ]
        }
    ],
    "textures" : [
        {
            "sampler" : 0,
            "source" : 0
        }
    ],
    "images" : [
        {
            "bufferView" : 12,
            "mimeType" : "image/png",
            "name" : "Label_Wrapl22.0"
        }
    ],
    "accessors" : [
        {
            "bufferView" : 0,
            "componentType" : 5126,
            "count" : 2206,
            "max" : [
                1.0545014142990112,
                0.8052316904067993,
                1.056050181388855
            ],
            "min" : [
                -1.0545014142990112,
                -1.2759593725204468,
                -1.056050181388855
            ],
            "type" : "VEC3"
        },
        {
            "bufferView" : 1,
            "componentType" : 5126,
            "count" : 2206,
            "type" : "VEC2"
        },
        {
            "bufferView" : 2,
            "componentType" : 5126,
            "count" : 2206,
            "type" : "VEC3"
        },
        {
            "bufferView" : 3,
            "componentType" : 5123,
            "count" : 3648,
            "type" : "SCALAR"
        },
        {
            "bufferView" : 4,
            "componentType" : 5126,
            "count" : 8511,
            "max" : [
                0.6751144528388977,
                0.020587140694260597,
                0.40413129329681396
            ],
            "min" : [
                -0.6354309916496277,
                -0.02580839954316616,
                -0.40370428562164307
            ],
            "type" : "VEC3"
        },
        {
            "bufferView" : 5,
            "componentType" : 5126,
            "count" : 8511,
            "type" : "VEC2"
        },
        {
            "bufferView" : 6,
            "componentType" : 5126,
            "count" : 8511,
            "type" : "VEC3"
        },
        {
            "bufferView" : 7,
            "componentType" : 5123,
            "count" : 45312,
            "type" : "SCALAR"
        },
        {
            "bufferView" : 8,
            "componentType" : 5126,
            "count" : 192,
            "max" : [
                2,
                2.5,
                2
            ],
            "min" : [
                -2,
                -2.5,
                -2
            ],
            "type" : "VEC3"
        },
        {
            "bufferView" : 9,
            "componentType" : 5126,
            "count" : 192,
            "type" : "VEC2"
        },
        {
            "bufferView" : 10,
            "componentType" : 5126,
            "count" : 192,
            "type" : "VEC3"
        },
        {
            "bufferView" : 11,
            "componentType" : 5123,
            "count" : 372,
            "type" : "SCALAR"
        },
        {
            "bufferView" : 13,
            "componentType" : 5126,
            "count" : 75,
            "max" : [
                1.9960870742797852,
                0,
                1.9960870742797852
            ],
            "min" : [
                -1.9960869550704956,
                0,
                -1.9960870742797852
            ],
            "type" : "VEC3"
        },
        {
            "bufferView" : 14,
            "componentType" : 5126,
            "count" : 75,
            "type" : "VEC2"
        },
        {
            "bufferView" : 15,
            "componentType" : 5126,
            "count" : 75,
            "type" : "VEC3"
        },
        {
            "bufferView" : 16,
            "componentType" : 5123,
            "count" : 180,
            "type" : "SCALAR"
        },
        {
            "bufferView" : 17,
            "componentType" : 5126,
            "count" : 1,
            "max" : [
                0
            ],
            "min" : [
                0
            ],
            "type" : "SCALAR"
        },
        {
            "bufferView" : 18,
            "componentType" : 5126,
            "count" : 1,
            "type" : "VEC3"
        },
        {
            "bufferView" : 19,
            "componentType" : 5126,
            "count" : 1,
            "type" : "VEC4"
        },
        {
            "bufferView" : 20,
            "componentType" : 5126,
            "count" : 1,
            "type" : "VEC3"
        },
        {
            "bufferView" : 21,
            "componentType" : 5126,
            "count" : 1,
            "type" : "VEC3"
        },
        {
            "bufferView" : 22,
            "componentType" : 5126,
            "count" : 1,
            "type" : "VEC4"
        },
        {
            "bufferView" : 23,
            "componentType" : 5126,
            "count" : 1,
            "type" : "VEC3"
        }
    ],
    "bufferViews" : [
        {
            "buffer" : 0,
            "byteLength" : 26472,
            "byteOffset" : 0,
            "target" : 34962
        },
        {
            "buffer" : 0,
            "byteLength" : 17648,
            "byteOffset" : 26472,
            "target" : 34962
        },
        {
            "buffer" : 0,
            "byteLength" : 26472,
            "byteOffset" : 44120,
            "target" : 34962
        },
        {
            "buffer" : 0,
            "byteLength" : 7296,
            "byteOffset" : 70592,
            "target" : 34963
        },
        {
            "buffer" : 0,
            "byteLength" : 102132,
            "byteOffset" : 77888,
            "target" : 34962
        },
        {
            "buffer" : 0,
            "byteLength" : 68088,
            "byteOffset" : 180020,
            "target" : 34962
        },
        {
            "buffer" : 0,
            "byteLength" : 102132,
            "byteOffset" : 248108,
            "target" : 34962
        },
        {
            "buffer" : 0,
            "byteLength" : 90624,
            "byteOffset" : 350240,
            "target" : 34963
        },
        {
            "buffer" : 0,
            "byteLength" : 2304,
            "byteOffset" : 440864,
            "target" : 34962
        },
        {
            "buffer" : 0,
            "byteLength" : 1536,
            "byteOffset" : 443168,
            "target" : 34962
        },
        {
            "buffer" : 0,
            "byteLength" : 2304,
            "byteOffset" : 444704,
            "target" : 34962
        },
        {
            "buffer" : 0,
            "byteLength" : 744,
            "byteOffset" : 447008,
            "target" : 34963
        },
        {
            "buffer" : 0,
            "byteLength" : 259611,
            "byteOffset" : 447752
        },
        {
            "buffer" : 0,
            "byteLength" : 900,
            "byteOffset" : 707364,
            "target" : 34962
        },
        {
            "buffer" : 0,
            "byteLength" : 600,
            "byteOffset" : 708264,
            "target" : 34962
        },
        {
            "buffer" : 0,
            "byteLength" : 900,
            "byteOffset" : 708864,
            "target" : 34962
        },
        {
            "buffer" : 0,
            "byteLength" : 360,
            "byteOffset" : 709764,
            "target" : 34963
        },
        {
            "buffer" : 0,
            "byteLength" : 4,
            "byteOffset" : 710124
        },
        {
            "buffer" : 0,
            "byteLength" : 12,
            "byteOffset" : 710128
        },
        {
            "buffer" : 0,
            "byteLength" : 16,
            "byteOffset" : 710140
        },
        {
            "buffer" : 0,
            "byteLength" : 12,
            "byteOffset" : 710156
        },
        {
            "buffer" : 0,
            "byteLength" : 12,
            "byteOffset" : 710168
        },
        {
            "buffer" : 0,
            "byteLength" : 16,
            "byteOffset" : 710180
        },
        {
            "buffer" : 0,
            "byteLength" : 12,
            "byteOffset" : 710196
        }
    ],
    "samplers" : [
        {
            "magFilter" : 9729,
            "minFilter" : 9987
        }
    ],
    "buffers" : [
        {
            "byteLength" : 710208,
            "uri" : "data:application/octet-stream;base64,"
        }
    ]
}
