{
	"asset":{
		"generator":"Khronos glTF Blender I/O v3.5.30",
		"version":"2.0"
	},
	"scene":0,
	"scenes":[
		{
			"name":"Scene",
			"nodes":[
				0,
				1,
				2,
				3
			]
		}
	],
	"nodes":[
		{
			"mesh":0,
			"name":"Can Body",
			"scale":[
				1.9772378206253052,
				2.9406237602233887,
				1.9743380546569824
			],
			"translation":[
				0,
				0.6916219592094421,
				0
			]
		},
		{
			"mesh":1,
			"name":"Open Tab",
			"rotation":[
				0,
				-1,
				0,
				4.371138828673793e-08
			],
			"scale":[
				0.9943851232528687,
				2.569373607635498,
				0.9943851232528687
			],
			"translation":[
				1.081746220588684,
				2.993194103240967,
				0
			]
		},
		{
			"mesh":2,
			"name":"Label Wrap",
			"translation":[
				0,
				0.03999999910593033,
				0
			]
		},
		{
			"mesh":3,
			"name":"Can Top",
			"rotation":[
				0.007712191436439753,
				0.030321737751364708,
				0.0017619736026972532,
				0.9995089769363403
			],
			"scale":[
				0.9268133044242859,
				1,
				0.9268133044242859
			],
			"translation":[
				0,
				2.9932143688201904,
				0
			]
		}
	],
	"animations":[
		{
			"channels":[
				{
					"sampler":0,
					"target":{
						"node":1,
						"path":"translation"
					}
				},
				{
					"sampler":1,
					"target":{
						"node":1,
						"path":"rotation"
					}
				},
				{
					"sampler":2,
					"target":{
						"node":1,
						"path":"scale"
					}
				}
			],
			"name":"Open TabAction",
			"samplers":[
				{
					"input":16,
					"interpolation":"STEP",
					"output":17
				},
				{
					"input":16,
					"interpolation":"STEP",
					"output":18
				},
				{
					"input":16,
					"interpolation":"STEP",
					"output":19
				}
			]
		},
		{
			"channels":[
				{
					"sampler":0,
					"target":{
						"node":3,
						"path":"translation"
					}
				},
				{
					"sampler":1,
					"target":{
						"node":3,
						"path":"rotation"
					}
				},
				{
					"sampler":2,
					"target":{
						"node":3,
						"path":"scale"
					}
				}
			],
			"name":"Can TopAction",
			"samplers":[
				{
					"input":16,
					"interpolation":"STEP",
					"output":20
				},
				{
					"input":16,
					"interpolation":"STEP",
					"output":21
				},
				{
					"input":16,
					"interpolation":"STEP",
					"output":22
				}
			]
		}
	],
	"materials":[
		{
			"doubleSided":true,
			"name":"Metal",
			"pbrMetallicRoughness":{
				"baseColorFactor":[
					0.800000011920929,
					0.800000011920929,
					0.800000011920929,
					1
				],
				"roughnessFactor":0.5
			}
		},
		{
			"doubleSided":true,
			"name":"Label",
			"pbrMetallicRoughness":{
				"baseColorTexture":{
					"index":0
				},
				"metallicFactor":0,
				"roughnessFactor":0.5
			}
		}
	],
	"meshes":[
		{
			"name":"Cylinder.001",
			"primitives":[
				{
					"attributes":{
						"POSITION":0,
						"TEXCOORD_0":1,
						"NORMAL":2
					},
					"indices":3,
					"material":0
				}
			]
		},
		{
			"name":"Plane",
			"primitives":[
				{
					"attributes":{
						"POSITION":4,
						"TEXCOORD_0":5,
						"NORMAL":6
					},
					"indices":7,
					"material":0
				}
			]
		},
		{
			"name":"Cylinder",
			"primitives":[
				{
					"attributes":{
						"POSITION":8,
						"TEXCOORD_0":9,
						"NORMAL":10
					},
					"indices":11,
					"material":1
				}
			]
		},
		{
			"name":"Circle",
			"primitives":[
				{
					"attributes":{
						"POSITION":12,
						"TEXCOORD_0":13,
						"NORMAL":14
					},
					"indices":15,
					"material":0
				}
			]
		}
	],
	"textures":[
		{
			"sampler":0,
			"source":0
		}
	],
	"images":[
		{
			"bufferView":12,
			"mimeType":"image/png",
			"name":"can_default_SPAGHETALETTERS"
		}
	],
	"accessors":[
		{
			"bufferView":0,
			"componentType":5126,
			"count":2030,
			"max":[
				1.0545014142990112,
				0.8052316904067993,
				1.056050181388855
			],
			"min":[
				-1.0545014142990112,
				-1.2759593725204468,
				-1.056050181388855
			],
			"type":"VEC3"
		},
		{
			"bufferView":1,
			"componentType":5126,
			"count":2030,
			"type":"VEC2"
		},
		{
			"bufferView":2,
			"componentType":5126,
			"count":2030,
			"type":"VEC3"
		},
		{
			"bufferView":3,
			"componentType":5123,
			"count":3648,
			"type":"SCALAR"
		},
		{
			"bufferView":4,
			"componentType":5126,
			"count":509,
			"max":[
				0.6751048564910889,
				0.020556269213557243,
				0.4039952754974365
			],
			"min":[
				-0.6353974342346191,
				-0.025208259001374245,
				-0.4035845994949341
			],
			"type":"VEC3"
		},
		{
			"bufferView":5,
			"componentType":5126,
			"count":509,
			"type":"VEC2"
		},
		{
			"bufferView":6,
			"componentType":5126,
			"count":509,
			"type":"VEC3"
		},
		{
			"bufferView":7,
			"componentType":5123,
			"count":1788,
			"type":"SCALAR"
		},
		{
			"bufferView":8,
			"componentType":5126,
			"count":192,
			"max":[
				2,
				2.5,
				2
			],
			"min":[
				-2,
				-2.5,
				-2
			],
			"type":"VEC3"
		},
		{
			"bufferView":9,
			"componentType":5126,
			"count":192,
			"type":"VEC2"
		},
		{
			"bufferView":10,
			"componentType":5126,
			"count":192,
			"type":"VEC3"
		},
		{
			"bufferView":11,
			"componentType":5123,
			"count":372,
			"type":"SCALAR"
		},
		{
			"bufferView":13,
			"componentType":5126,
			"count":64,
			"max":[
				1.9960870742797852,
				0,
				1.9960870742797852
			],
			"min":[
				-1.9960869550704956,
				0,
				-1.9960870742797852
			],
			"type":"VEC3"
		},
		{
			"bufferView":14,
			"componentType":5126,
			"count":64,
			"type":"VEC2"
		},
		{
			"bufferView":15,
			"componentType":5126,
			"count":64,
			"type":"VEC3"
		},
		{
			"bufferView":16,
			"componentType":5123,
			"count":180,
			"type":"SCALAR"
		},
		{
			"bufferView":17,
			"componentType":5126,
			"count":1,
			"max":[
				0
			],
			"min":[
				0
			],
			"type":"SCALAR"
		},
		{
			"bufferView":18,
			"componentType":5126,
			"count":1,
			"type":"VEC3"
		},
		{
			"bufferView":19,
			"componentType":5126,
			"count":1,
			"type":"VEC4"
		},
		{
			"bufferView":20,
			"componentType":5126,
			"count":1,
			"type":"VEC3"
		},
		{
			"bufferView":21,
			"componentType":5126,
			"count":1,
			"type":"VEC3"
		},
		{
			"bufferView":22,
			"componentType":5126,
			"count":1,
			"type":"VEC4"
		},
		{
			"bufferView":23,
			"componentType":5126,
			"count":1,
			"type":"VEC3"
		}
	],
	"bufferViews":[
		{
			"buffer":0,
			"byteLength":24360,
			"byteOffset":0,
			"target":34962
		},
		{
			"buffer":0,
			"byteLength":16240,
			"byteOffset":24360,
			"target":34962
		},
		{
			"buffer":0,
			"byteLength":24360,
			"byteOffset":40600,
			"target":34962
		},
		{
			"buffer":0,
			"byteLength":7296,
			"byteOffset":64960,
			"target":34963
		},
		{
			"buffer":0,
			"byteLength":6108,
			"byteOffset":72256,
			"target":34962
		},
		{
			"buffer":0,
			"byteLength":4072,
			"byteOffset":78364,
			"target":34962
		},
		{
			"buffer":0,
			"byteLength":6108,
			"byteOffset":82436,
			"target":34962
		},
		{
			"buffer":0,
			"byteLength":3576,
			"byteOffset":88544,
			"target":34963
		},
		{
			"buffer":0,
			"byteLength":2304,
			"byteOffset":92120,
			"target":34962
		},
		{
			"buffer":0,
			"byteLength":1536,
			"byteOffset":94424,
			"target":34962
		},
		{
			"buffer":0,
			"byteLength":2304,
			"byteOffset":95960,
			"target":34962
		},
		{
			"buffer":0,
			"byteLength":744,
			"byteOffset":98264,
			"target":34963
		},
		{
			"buffer":0,
			"byteLength":331888,
			"byteOffset":99008
		},
		{
			"buffer":0,
			"byteLength":768,
			"byteOffset":430896,
			"target":34962
		},
		{
			"buffer":0,
			"byteLength":512,
			"byteOffset":431664,
			"target":34962
		},
		{
			"buffer":0,
			"byteLength":768,
			"byteOffset":432176,
			"target":34962
		},
		{
			"buffer":0,
			"byteLength":360,
			"byteOffset":432944,
			"target":34963
		},
		{
			"buffer":0,
			"byteLength":4,
			"byteOffset":433304
		},
		{
			"buffer":0,
			"byteLength":12,
			"byteOffset":433308
		},
		{
			"buffer":0,
			"byteLength":16,
			"byteOffset":433320
		},
		{
			"buffer":0,
			"byteLength":12,
			"byteOffset":433336
		},
		{
			"buffer":0,
			"byteLength":12,
			"byteOffset":433348
		},
		{
			"buffer":0,
			"byteLength":16,
			"byteOffset":433360
		},
		{
			"buffer":0,
			"byteLength":12,
			"byteOffset":433376
		}
	],
	"samplers":[
		{
			"magFilter":9729,
			"minFilter":9987
		}
	],
	"buffers":[
		{
			"byteLength":433388,
			"uri":"data:application/octet-stream;base64,"
		}
	]
}
