{
	"asset":{
		"generator":"Khronos glTF Blender I/O v3.5.30",
		"version":"2.0"
	},
	"scene":0,
	"scenes":[
		{
			"name":"Scene",
			"nodes":[
				0,
				1,
				2,
				3,
				4,
				5
			]
		}
	],
	"nodes":[
		{
			"mesh":0,
			"name":"Open Tab",
			"rotation":[
				0,
				-1,
				0,
				4.371138828673793e-08
			],
			"scale":[
				0.9943851232528687,
				2.569373607635498,
				0.9943851232528687
			],
			"translation":[
				1.081746220588684,
				2.993194103240967,
				0
			]
		},
		{
			"mesh":1,
			"name":"Label Wrap",
			"translation":[
				0,
				0.03999999910593033,
				0
			]
		},
		{
			"mesh":2,
			"name":"Can Top",
			"rotation":[
				0.007712190970778465,
				0.030321726575493813,
				0.001761973719112575,
				0.9995089769363403
			],
			"scale":[
				0.9268133044242859,
				1,
				0.9268133044242859
			],
			"translation":[
				0,
				2.9932143688201904,
				0
			]
		},
		{
			"mesh":3,
			"name":"Can Body",
			"scale":[
				1.9772378206253052,
				2.9406237602233887,
				1.9743380546569824
			],
			"translation":[
				0,
				0.6916219592094421,
				0
			]
		},
		{
			"mesh":4,
			"name":"Can Top.001",
			"rotation":[
				0.007712191436439753,
				0.030321737751364708,
				0.0017619736026972532,
				0.9995089769363403
			],
			"scale":[
				0.9268133044242859,
				1,
				0.9268133044242859
			],
			"translation":[
				0,
				2.9932143688201904,
				0
			]
		},
		{
			"mesh":5,
			"name":"Cylinder",
			"rotation":[
				0,
				0.7071068286895752,
				0,
				0.7071068286895752
			],
			"scale":[
				2,
				2.5,
				2
			],
			"translation":[
				0,
				0.029999999329447746,
				0
			]
		}
	],
	"animations":[
		{
			"channels":[
				{
					"sampler":0,
					"target":{
						"node":0,
						"path":"translation"
					}
				},
				{
					"sampler":1,
					"target":{
						"node":0,
						"path":"rotation"
					}
				},
				{
					"sampler":2,
					"target":{
						"node":0,
						"path":"scale"
					}
				}
			],
			"name":"Open TabAction.001",
			"samplers":[
				{
					"input":25,
					"interpolation":"LINEAR",
					"output":26
				},
				{
					"input":25,
					"interpolation":"LINEAR",
					"output":27
				},
				{
					"input":25,
					"interpolation":"LINEAR",
					"output":28
				}
			]
		},
		{
			"channels":[
				{
					"sampler":0,
					"target":{
						"node":2,
						"path":"weights"
					}
				}
			],
			"name":"KeyAction.001",
			"samplers":[
				{
					"input":25,
					"interpolation":"LINEAR",
					"output":29
				}
			]
		},
		{
			"channels":[
				{
					"sampler":0,
					"target":{
						"node":4,
						"path":"translation"
					}
				},
				{
					"sampler":1,
					"target":{
						"node":4,
						"path":"rotation"
					}
				},
				{
					"sampler":2,
					"target":{
						"node":4,
						"path":"scale"
					}
				}
			],
			"name":"Can TopAction.003",
			"samplers":[
				{
					"input":30,
					"interpolation":"STEP",
					"output":31
				},
				{
					"input":30,
					"interpolation":"STEP",
					"output":32
				},
				{
					"input":30,
					"interpolation":"STEP",
					"output":33
				}
			]
		}
	],
	"materials":[
		{
			"doubleSided":true,
			"name":"Metal.001",
			"pbrMetallicRoughness":{
				"baseColorFactor":[
					0.800000011920929,
					0.800000011920929,
					0.800000011920929,
					1
				],
				"roughnessFactor":0.5
			}
		},
		{
			"doubleSided":true,
			"name":"Label.001",
			"pbrMetallicRoughness":{
				"metallicFactor":0,
				"roughnessFactor":0.5
			}
		},
		{
			"doubleSided":true,
			"name":"Label",
			"pbrMetallicRoughness":{
				"baseColorTexture":{
					"index":0
				},
				"metallicFactor":0,
				"roughnessFactor":0.5
			}
		}
	],
	"meshes":[
		{
			"name":"Plane.001",
			"primitives":[
				{
					"attributes":{
						"POSITION":0,
						"TEXCOORD_0":1,
						"NORMAL":2
					},
					"indices":3,
					"material":0
				}
			]
		},
		{
			"name":"Cylinder.002",
			"primitives":[
				{
					"attributes":{
						"POSITION":4,
						"TEXCOORD_0":5,
						"NORMAL":6
					},
					"indices":7,
					"material":1
				}
			]
		},
		{
			"extras":{
				"targetNames":[
					"Can Top.001"
				]
			},
			"name":"Circle.001",
			"primitives":[
				{
					"attributes":{
						"POSITION":8,
						"TEXCOORD_0":9,
						"NORMAL":10
					},
					"indices":11,
					"material":0,
					"targets":[
						{
							"POSITION":12,
							"NORMAL":13
						}
					]
				}
			],
			"weights":[
				0
			]
		},
		{
			"name":"Cylinder.003",
			"primitives":[
				{
					"attributes":{
						"POSITION":14,
						"TEXCOORD_0":15,
						"NORMAL":16
					},
					"indices":17,
					"material":0
				}
			]
		},
		{
			"name":"Circle.002",
			"primitives":[
				{
					"attributes":{
						"POSITION":18,
						"TEXCOORD_0":19,
						"NORMAL":20
					},
					"indices":21,
					"material":0
				}
			]
		},
		{
			"name":"Cylinder",
			"primitives":[
				{
					"attributes":{
						"POSITION":22,
						"TEXCOORD_0":23,
						"NORMAL":24
					},
					"indices":7,
					"material":2
				}
			]
		}
	],
	"textures":[
		{
			"sampler":0,
			"source":0
		}
	],
	"images":[
		{
			"bufferView":25,
			"mimeType":"image/png",
			"name":"SPAGHETALETTERS"
		}
	],
	"accessors":[
		{
			"bufferView":0,
			"componentType":5126,
			"count":8511,
			"max":[
				0.6751144528388977,
				0.020587140694260597,
				0.40413129329681396
			],
			"min":[
				-0.6354309916496277,
				-0.02580839954316616,
				-0.40370428562164307
			],
			"type":"VEC3"
		},
		{
			"bufferView":1,
			"componentType":5126,
			"count":8511,
			"type":"VEC2"
		},
		{
			"bufferView":2,
			"componentType":5126,
			"count":8511,
			"type":"VEC3"
		},
		{
			"bufferView":3,
			"componentType":5123,
			"count":45312,
			"type":"SCALAR"
		},
		{
			"bufferView":4,
			"componentType":5126,
			"count":192,
			"max":[
				2,
				2.5,
				2
			],
			"min":[
				-2,
				-2.5,
				-2
			],
			"type":"VEC3"
		},
		{
			"bufferView":5,
			"componentType":5126,
			"count":192,
			"type":"VEC2"
		},
		{
			"bufferView":6,
			"componentType":5126,
			"count":192,
			"type":"VEC3"
		},
		{
			"bufferView":7,
			"componentType":5123,
			"count":372,
			"type":"SCALAR"
		},
		{
			"bufferView":8,
			"componentType":5126,
			"count":86,
			"max":[
				1.9960870742797852,
				0,
				1.9960870742797852
			],
			"min":[
				-1.9960869550704956,
				0,
				-1.9960870742797852
			],
			"type":"VEC3"
		},
		{
			"bufferView":9,
			"componentType":5126,
			"count":86,
			"type":"VEC2"
		},
		{
			"bufferView":10,
			"componentType":5126,
			"count":86,
			"type":"VEC3"
		},
		{
			"bufferView":11,
			"componentType":5123,
			"count":180,
			"type":"SCALAR"
		},
		{
			"bufferView":12,
			"componentType":5126,
			"count":86,
			"max":[
				0,
				2.0030133724212646,
				0
			],
			"min":[
				-4.499938011169434,
				0,
				-0.30678561329841614
			],
			"type":"VEC3"
		},
		{
			"bufferView":13,
			"componentType":5126,
			"count":86,
			"type":"VEC3"
		},
		{
			"bufferView":14,
			"componentType":5126,
			"count":2030,
			"max":[
				1.0545014142990112,
				0.8052316904067993,
				1.056050181388855
			],
			"min":[
				-1.0545014142990112,
				-1.2759593725204468,
				-1.056050181388855
			],
			"type":"VEC3"
		},
		{
			"bufferView":15,
			"componentType":5126,
			"count":2030,
			"type":"VEC2"
		},
		{
			"bufferView":16,
			"componentType":5126,
			"count":2030,
			"type":"VEC3"
		},
		{
			"bufferView":17,
			"componentType":5123,
			"count":3648,
			"type":"SCALAR"
		},
		{
			"bufferView":18,
			"componentType":5126,
			"count":86,
			"max":[
				-0.6021296977996826,
				2.0030133724212646,
				1.9321030378341675
			],
			"min":[
				-2.517810106277466,
				0,
				-2.0644948482513428
			],
			"type":"VEC3"
		},
		{
			"bufferView":19,
			"componentType":5126,
			"count":86,
			"type":"VEC2"
		},
		{
			"bufferView":20,
			"componentType":5126,
			"count":86,
			"type":"VEC3"
		},
		{
			"bufferView":21,
			"componentType":5123,
			"count":180,
			"type":"SCALAR"
		},
		{
			"bufferView":22,
			"componentType":5126,
			"count":192,
			"max":[
				1,
				1,
				1
			],
			"min":[
				-1,
				-1,
				-1
			],
			"type":"VEC3"
		},
		{
			"bufferView":23,
			"componentType":5126,
			"count":192,
			"type":"VEC2"
		},
		{
			"bufferView":24,
			"componentType":5126,
			"count":192,
			"type":"VEC3"
		},
		{
			"bufferView":26,
			"componentType":5126,
			"count":27,
			"max":[
				1.0833333333333333
			],
			"min":[
				0
			],
			"type":"SCALAR"
		},
		{
			"bufferView":27,
			"componentType":5126,
			"count":27,
			"type":"VEC3"
		},
		{
			"bufferView":28,
			"componentType":5126,
			"count":27,
			"type":"VEC4"
		},
		{
			"bufferView":29,
			"componentType":5126,
			"count":27,
			"type":"VEC3"
		},
		{
			"bufferView":30,
			"componentType":5126,
			"count":27,
			"type":"SCALAR"
		},
		{
			"bufferView":31,
			"componentType":5126,
			"count":1,
			"max":[
				0
			],
			"min":[
				0
			],
			"type":"SCALAR"
		},
		{
			"bufferView":32,
			"componentType":5126,
			"count":1,
			"type":"VEC3"
		},
		{
			"bufferView":33,
			"componentType":5126,
			"count":1,
			"type":"VEC4"
		},
		{
			"bufferView":34,
			"componentType":5126,
			"count":1,
			"type":"VEC3"
		}
	],
	"bufferViews":[
		{
			"buffer":0,
			"byteLength":102132,
			"byteOffset":0,
			"target":34962
		},
		{
			"buffer":0,
			"byteLength":68088,
			"byteOffset":102132,
			"target":34962
		},
		{
			"buffer":0,
			"byteLength":102132,
			"byteOffset":170220,
			"target":34962
		},
		{
			"buffer":0,
			"byteLength":90624,
			"byteOffset":272352,
			"target":34963
		},
		{
			"buffer":0,
			"byteLength":2304,
			"byteOffset":362976,
			"target":34962
		},
		{
			"buffer":0,
			"byteLength":1536,
			"byteOffset":365280,
			"target":34962
		},
		{
			"buffer":0,
			"byteLength":2304,
			"byteOffset":366816,
			"target":34962
		},
		{
			"buffer":0,
			"byteLength":744,
			"byteOffset":369120,
			"target":34963
		},
		{
			"buffer":0,
			"byteLength":1032,
			"byteOffset":369864,
			"target":34962
		},
		{
			"buffer":0,
			"byteLength":688,
			"byteOffset":370896,
			"target":34962
		},
		{
			"buffer":0,
			"byteLength":1032,
			"byteOffset":371584,
			"target":34962
		},
		{
			"buffer":0,
			"byteLength":360,
			"byteOffset":372616,
			"target":34963
		},
		{
			"buffer":0,
			"byteLength":1032,
			"byteOffset":372976,
			"target":34962
		},
		{
			"buffer":0,
			"byteLength":1032,
			"byteOffset":374008,
			"target":34962
		},
		{
			"buffer":0,
			"byteLength":24360,
			"byteOffset":375040,
			"target":34962
		},
		{
			"buffer":0,
			"byteLength":16240,
			"byteOffset":399400,
			"target":34962
		},
		{
			"buffer":0,
			"byteLength":24360,
			"byteOffset":415640,
			"target":34962
		},
		{
			"buffer":0,
			"byteLength":7296,
			"byteOffset":440000,
			"target":34963
		},
		{
			"buffer":0,
			"byteLength":1032,
			"byteOffset":447296,
			"target":34962
		},
		{
			"buffer":0,
			"byteLength":688,
			"byteOffset":448328,
			"target":34962
		},
		{
			"buffer":0,
			"byteLength":1032,
			"byteOffset":449016,
			"target":34962
		},
		{
			"buffer":0,
			"byteLength":360,
			"byteOffset":450048,
			"target":34963
		},
		{
			"buffer":0,
			"byteLength":2304,
			"byteOffset":450408,
			"target":34962
		},
		{
			"buffer":0,
			"byteLength":1536,
			"byteOffset":452712,
			"target":34962
		},
		{
			"buffer":0,
			"byteLength":2304,
			"byteOffset":454248,
			"target":34962
		},
		{
			"buffer":0,
			"byteLength":323318,
			"byteOffset":456552
		},
		{
			"buffer":0,
			"byteLength":108,
			"byteOffset":779872
		},
		{
			"buffer":0,
			"byteLength":324,
			"byteOffset":779980
		},
		{
			"buffer":0,
			"byteLength":432,
			"byteOffset":780304
		},
		{
			"buffer":0,
			"byteLength":324,
			"byteOffset":780736
		},
		{
			"buffer":0,
			"byteLength":108,
			"byteOffset":781060
		},
		{
			"buffer":0,
			"byteLength":4,
			"byteOffset":781168
		},
		{
			"buffer":0,
			"byteLength":12,
			"byteOffset":781172
		},
		{
			"buffer":0,
			"byteLength":16,
			"byteOffset":781184
		},
		{
			"buffer":0,
			"byteLength":12,
			"byteOffset":781200
		}
	],
	"samplers":[
		{
			"magFilter":9729,
			"minFilter":9987
		}
	],
	"buffers":[
		{
			"byteLength":781212,
			"uri":"data:application/octet-stream;base64,"
		}
	]
}
