# Blender 3.3.1
# www.blender.org
mtllib room2.mtl
o Plane
v -1.534257 -0.431036 1.528003
v 1.669426 -0.431036 1.528003
v -1.534257 -0.431036 -1.675680
v 1.669426 -0.431036 -1.675680
v -1.534257 1.658570 1.528003
v 1.669426 1.658570 1.528003
v 1.669426 1.658570 -1.675680
v -1.534257 1.672000 1.528003
v -1.534257 1.672000 -1.675680
v -1.601596 -0.498375 1.595342
v 1.736765 -0.498375 1.595342
v -1.616730 -0.513509 -1.675680
v 1.751899 -0.513509 -1.675680
v -1.534257 1.658570 1.644638
v 1.751899 1.658570 1.610476
v 1.786061 1.658570 -1.675680
v -1.650892 1.672000 1.528003
v -1.650892 1.672000 -1.675680
vn -0.0000 -1.0000 -0.0000
vn 1.0000 -0.0000 -0.0000
vn -0.0000 -0.0000 1.0000
vn -1.0000 -0.0000 -0.0000
vn -0.0000 1.0000 -0.0046
vn -0.9999 0.0114 -0.0075
vn -0.0052 0.0150 -0.9999
vn 0.9998 0.0191 -0.0024
vn 0.9411 -0.0188 0.3376
vn -0.3376 -0.0187 -0.9411
vt 0.000000 0.000000
vt 1.000000 0.000000
vt 0.000000 1.000000
vt 1.000000 1.000000
vt 0.000000 0.000000
vt 1.000000 0.000000
vt 1.000000 1.000000
vt 0.000000 0.000000
vt 0.000000 1.000000
vt 0.000000 0.000000
vt 1.000000 0.000000
vt 0.000000 1.000000
vt 1.000000 1.000000
vt 0.000000 0.000000
vt 1.000000 0.000000
vt 1.000000 1.000000
vt 0.000000 0.000000
vt 0.000000 1.000000
s 0
f 1/1/1 3/3/1 4/4/1 2/2/1
f 4/4/2 7/7/2 6/6/2 2/2/2
f 2/2/3 6/6/3 5/5/3 1/1/3
f 1/1/4 8/8/4 9/9/4 3/3/4
f 10/10/5 11/11/5 13/13/5 12/12/5
f 13/13/6 11/11/6 15/15/6 16/16/6
f 11/11/7 10/10/7 14/14/7 15/15/7
f 10/10/8 12/12/8 18/18/8 17/17/8
f 3/3/3 9/9/3 18/18/3 12/12/3
f 1/1/9 5/5/9 14/14/9 10/10/9
f 5/5/1 6/6/1 15/15/1 14/14/1
f 8/8/10 1/1/10 10/10/10 17/17/10
f 9/9/1 8/8/1 17/17/1 18/18/1
f 7/7/3 4/4/3 13/13/3 16/16/3
f 6/6/1 7/7/1 16/16/1 15/15/1
f 4/4/3 3/3/3 12/12/3 13/13/3
